<?xml version="1.0" encoding="utf-8"?>
<!-- Generator: Adobe Illustrator 22.1.0, SVG Export Plug-In . SVG Version: 6.00 Build 0)  -->
<svg version="1.1" id="Ebene_1" xmlns="http://www.w3.org/2000/svg" xmlns:xlink="http://www.w3.org/1999/xlink" x="0px" y="0px"
	 viewBox="0 0 260.7 97.9" style="enable-background:new 0 0 260.7 97.9;" xml:space="preserve">
<style type="text/css">
	.st0{fill:#FFAF00;}
</style>
<title>Logo AKBS_final RGB-255-175-0_2019_ohneR</title>
<g id="Ebene_2_1_">
	<g id="Ebene_1-2">
		<path d="M126.8,42.4l-1.1-3.3c-0.3-0.8-0.5-1.8-0.7-2.6l0,0c-0.2,0.8-0.4,1.7-0.7,2.6l-1,3.4L126.8,42.4z M122.9,44.2l-1.2,3.9
			h-2.6l4.4-13.7h3.2l4.4,13.7h-2.7l-1.2-3.9H122.9z"/>
		<path d="M141.5,45.2c0,1.2,0,2.1,0.1,3h-2.2l-0.1-1.5h-0.1c-0.7,1.1-1.9,1.7-3.2,1.7c-1.8,0-3.4-1.1-3.4-4.3v-5.8h2.5v5.4
			c0,1.6,0.5,2.7,1.9,2.7c0.9,0,1.6-0.5,1.9-1.3c0.1-0.2,0.2-0.5,0.1-0.8v-5.9h2.5L141.5,45.2z"/>
		<path d="M144.1,45.8c0.8,0.4,1.6,0.7,2.5,0.7c1.1,0,1.6-0.5,1.6-1.1s-0.4-1-1.6-1.4c-1.9-0.7-2.7-1.7-2.7-2.9
			c0-1.7,1.4-3.1,3.7-3.1c0.9,0,1.8,0.2,2.6,0.6l-0.5,1.7c-0.6-0.4-1.4-0.5-2.1-0.6c-0.9,0-1.4,0.4-1.4,1s0.5,0.9,1.7,1.4
			c1.8,0.6,2.6,1.5,2.6,3c0,1.8-1.4,3.1-4,3.1c-1,0-2.1-0.2-3-0.7L144.1,45.8z"/>
		<path d="M159.1,42.2c0-0.2,0-0.5-0.1-0.7c-0.2-0.9-1-1.6-2-1.6c-1.4,0-2.4,1.2-2.4,3.2c0,1.7,0.9,3,2.4,3c0.9,0,1.7-0.6,2-1.5
			c0.1-0.3,0.1-0.6,0.1-0.9L159.1,42.2z M161.6,46.7c0,2.1-0.4,3.5-1.5,4.5c-1.1,0.9-2.4,1.3-3.8,1.2c-1.2,0-2.4-0.2-3.4-0.8
			l0.6-1.9c0.9,0.5,1.9,0.8,2.9,0.8c1.6,0,2.8-0.8,2.8-3v-0.8l0,0c-0.7,1-1.8,1.5-2.9,1.4c-2.4,0-4.2-2-4.2-4.8
			c0-3.2,2.1-5.2,4.5-5.2c1.2-0.1,2.3,0.5,2.9,1.5l0,0l0.1-1.3h2.2c0,0.7-0.1,1.5-0.1,2.8L161.6,46.7z"/>
		<rect x="164.3" y="33.7" width="2.5" height="14.4"/>
		<path d="M175.6,42.1c0.2-1.2-0.7-2.2-1.8-2.4c-0.1,0-0.1,0-0.2,0c-1.3,0.1-2.3,1.1-2.3,2.4H175.6z M171.2,43.9
			c0.1,1.8,1.4,2.5,3,2.5c0.9,0,1.9-0.1,2.8-0.4l0.4,1.7c-1.1,0.4-2.3,0.6-3.4,0.6c-3.2,0-5.1-2-5.1-5c0-2.7,1.7-5.3,4.8-5.3
			s4.3,2.6,4.3,4.8c0,0.3,0,0.7-0.1,1L171.2,43.9z"/>
		<path d="M179.9,38.2h2.5v9.9h-2.5V38.2z M182.6,35.5c0,0.8-0.6,1.4-1.4,1.4c-0.8,0-1.4-0.6-1.4-1.4s0.6-1.4,1.4-1.4c0,0,0,0,0,0
			C181.9,34.1,182.6,34.7,182.6,35.5C182.6,35.4,182.6,35.5,182.6,35.5"/>
		<path d="M192.4,47.8c-0.9,0.4-1.8,0.5-2.8,0.5c-2.6,0.2-4.9-1.8-5.1-4.4c0-0.2,0-0.4,0-0.7c0-3,2-5.2,5.5-5.2
			c0.8,0,1.6,0.2,2.4,0.5l-0.4,1.9c-0.6-0.3-1.2-0.4-1.9-0.4c-1.6,0-3,1.2-3,2.9c0,0.1,0,0.2,0,0.3c-0.1,1.6,1.1,3,2.7,3.2
			c0.1,0,0.2,0,0.3,0c0.7,0,1.4-0.1,2-0.4L192.4,47.8z"/>
		<path d="M194.2,33.7h2.5v5.8l0,0c0.3-0.5,0.8-0.9,1.3-1.1c0.5-0.3,1.1-0.5,1.7-0.5c1.7,0,3.4,1.1,3.4,4.3v5.8h-2.5v-5.5
			c0-1.4-0.5-2.5-1.9-2.5c-0.9,0-1.7,0.6-1.9,1.4c-0.1,0.2-0.1,0.5-0.1,0.8v5.9h-2.5L194.2,33.7z"/>
		<path d="M205.7,45.8c0.8,0.4,1.6,0.7,2.5,0.7c1.1,0,1.6-0.5,1.6-1.1s-0.4-1-1.6-1.4c-1.9-0.7-2.7-1.7-2.7-2.9
			c0-1.7,1.4-3.1,3.7-3.1c0.9,0,1.8,0.2,2.6,0.6l-0.5,1.7c-0.6-0.4-1.4-0.5-2.1-0.6c-0.9,0-1.4,0.4-1.4,1s0.5,0.9,1.7,1.4
			c1.8,0.6,2.6,1.5,2.6,3c0,1.8-1.4,3.1-4,3.1c-1,0-2.1-0.2-3-0.7L205.7,45.8z"/>
		<path d="M216.8,42.6L216.8,42.6c0.2-0.4,0.5-0.8,0.8-1.2l2.5-3.2h3l-3.7,4l4.2,5.8h-3.1l-2.8-4.3l-0.8,1v3.4h-2.5V33.7h2.5
			L216.8,42.6z"/>
		<path d="M230,43.3c-1.8,0-3.4,0.3-3.4,1.8c-0.1,0.7,0.5,1.3,1.2,1.4c0.1,0,0.2,0,0.3,0c0.9,0,1.7-0.5,2-1.3c0-0.2,0.1-0.4,0.1-0.5
			L230,43.3z M232.4,45.7c0,0.8,0,1.6,0.2,2.4h-2.2l-0.1-1.1h-0.1c-0.7,0.9-1.8,1.4-2.9,1.3c-1.6,0.1-3-1.1-3.1-2.8
			c0-0.1,0-0.1,0-0.2c0-2.5,2.2-3.8,5.9-3.7v-0.2c0-0.7-0.3-1.7-2-1.7c-0.9,0-1.9,0.3-2.7,0.7l-0.5-1.6c1.1-0.6,2.3-0.9,3.6-0.9
			c3.2,0,4.1,2,4.1,4.2L232.4,45.7z"/>
		<path d="M235,45.8c0.8,0.4,1.6,0.7,2.5,0.7c1.1,0,1.6-0.5,1.6-1.1s-0.4-1-1.6-1.4c-1.9-0.7-2.7-1.7-2.7-2.9c0-1.7,1.4-3.1,3.7-3.1
			c0.9,0,1.8,0.2,2.6,0.6l-0.5,1.7c-0.6-0.4-1.4-0.6-2.1-0.6c-0.9,0-1.4,0.4-1.4,1s0.5,0.9,1.7,1.4c1.8,0.6,2.6,1.5,2.6,3
			c0,1.8-1.4,3.1-4,3.1c-1,0-2.1-0.2-3-0.7L235,45.8z"/>
		<path d="M243.4,45.8c0.8,0.4,1.6,0.7,2.5,0.7c1.1,0,1.6-0.5,1.6-1.1s-0.4-1-1.6-1.4c-1.9-0.7-2.7-1.7-2.7-2.9
			c0-1.7,1.4-3.1,3.7-3.1c0.9,0,1.8,0.2,2.6,0.6l-0.5,1.7c-0.6-0.4-1.4-0.5-2.1-0.6c-0.9,0-1.4,0.4-1.4,1s0.5,0.9,1.7,1.4
			c1.8,0.6,2.6,1.5,2.6,3c0,1.8-1.4,3.1-4,3.1c-1,0-2.1-0.2-3-0.7L243.4,45.8z"/>
		<path d="M258.1,42.1c0.2-1.2-0.6-2.2-1.8-2.4c-0.1,0-0.1,0-0.2,0c-1.3,0.1-2.3,1.1-2.3,2.4H258.1z M253.8,43.9
			c0.1,1.8,1.4,2.5,3,2.5c0.9,0,1.9-0.1,2.7-0.4l0.4,1.7c-1.1,0.4-2.3,0.6-3.5,0.6c-3.2,0-5.1-2-5.1-5c0-2.7,1.7-5.3,4.8-5.3
			c3.2,0,4.3,2.6,4.3,4.8c0,0.3,0,0.7-0.1,1L253.8,43.9z"/>
		<path d="M122.6,65.8c0.4,0.1,0.9,0.1,1.3,0.1c1.6,0,3-0.6,3-2.3c0-1.7-1.4-2.2-3.1-2.2h-1.2L122.6,65.8z M122.6,59.6h1.3
			c1.7,0,2.7-0.8,2.7-2s-1-1.9-2.6-1.9c-0.5,0-1,0-1.4,0.1V59.6z M120.2,54.2c1.2-0.2,2.4-0.3,3.6-0.3c1.4-0.1,2.7,0.2,3.9,0.9
			c0.9,0.5,1.5,1.5,1.4,2.6c0,1.4-1,2.6-2.3,2.9v0.1c1.6,0.3,2.8,1.7,2.8,3.4c0,1.1-0.5,2.1-1.3,2.8c-1,0.8-2.6,1.2-5.1,1.2
			c-1,0-2-0.1-3.1-0.2V54.2z"/>
		<path d="M137,62.8c-1.8,0-3.4,0.3-3.4,1.8c-0.1,0.7,0.5,1.4,1.2,1.4c0.1,0,0.2,0,0.3,0c0.9,0,1.7-0.5,2-1.4
			c0.1-0.2,0.1-0.4,0.1-0.6L137,62.8z M139.4,65.3c0,0.8,0,1.6,0.2,2.4h-2.2l-0.2-1.1h-0.1c-0.7,0.9-1.8,1.4-2.9,1.3
			c-1.6,0.1-3-1.1-3.1-2.8c0-0.1,0-0.1,0-0.2c0-2.5,2.2-3.7,5.9-3.7V61c0-0.6-0.3-1.7-2-1.7c-0.9,0-1.8,0.3-2.6,0.7l-0.5-1.6
			c1.1-0.6,2.3-0.9,3.6-0.9c3.2,0,4.1,2,4.1,4.2L139.4,65.3z"/>
		<path d="M142,65.3c0.8,0.4,1.6,0.7,2.5,0.7c1.1,0,1.6-0.5,1.6-1.1s-0.4-1-1.6-1.4c-1.9-0.7-2.7-1.7-2.7-2.9c0-1.7,1.4-3.1,3.7-3.1
			c0.9,0,1.8,0.2,2.6,0.6l-0.5,1.7c-0.6-0.4-1.4-0.6-2.1-0.6c-0.9,0-1.4,0.5-1.4,1s0.5,0.9,1.7,1.4c1.8,0.6,2.6,1.5,2.6,3
			c0,1.8-1.4,3.1-4,3.1c-1,0-2.1-0.2-3-0.7L142,65.3z"/>
		<path d="M156.6,61.7c0.2-1.2-0.7-2.2-1.8-2.4c-0.1,0-0.1,0-0.2,0c-1.3,0.1-2.3,1.1-2.3,2.4H156.6z M152.3,63.4
			c0.1,1.8,1.4,2.6,3,2.6c0.9,0,1.9-0.1,2.7-0.4l0.4,1.7c-1.1,0.4-2.3,0.7-3.4,0.6c-3.2,0-5.1-2-5.1-5c0-2.7,1.7-5.3,4.8-5.3
			s4.3,2.6,4.3,4.8c0,0.3,0,0.7-0.1,1L152.3,63.4z"/>
		<rect x="161" y="53.3" width="2.5" height="14.4"/>
		<rect x="165.5" y="61.4" width="5.2" height="1.7"/>
		<path d="M172.7,64.9c1,0.6,2.1,0.9,3.3,0.9c1.6,0,2.5-0.8,2.5-1.9c0-1.1-0.7-1.6-2.4-2.3c-2.3-0.8-3.7-2-3.7-4
			c0-2.2,1.9-3.9,4.9-3.9c1.1,0,2.2,0.2,3.3,0.7l-0.6,2c-0.8-0.4-1.8-0.6-2.7-0.6c-1.6,0-2.2,0.8-2.2,1.6c0,1,0.8,1.5,2.6,2.2
			c2.4,0.9,3.5,2.1,3.5,4c0,2.2-1.7,4.1-5.2,4.1c-1.3,0-2.6-0.3-3.7-0.9L172.7,64.9z"/>
		<path d="M185.9,55.2v2.5h2.4v1.9h-2.4V64c0,1.2,0.3,1.8,1.3,1.8c0.3,0,0.7,0,1-0.1v1.9c-0.6,0.2-1.2,0.3-1.8,0.3
			c-0.8,0-1.6-0.3-2.1-0.8c-0.6-0.8-0.9-1.8-0.8-2.8v-4.7H182v-1.9h1.4v-1.8L185.9,55.2z"/>
		<path d="M195.4,62.8c-1.8,0-3.4,0.3-3.4,1.8c-0.1,0.7,0.5,1.4,1.2,1.4c0.1,0,0.2,0,0.2,0c0.9,0,1.7-0.5,2-1.4
			c0.1-0.2,0.1-0.4,0.1-0.6L195.4,62.8z M197.8,65.3c0,0.8,0,1.6,0.2,2.4h-2.2l-0.2-1.1h-0.1c-0.7,0.9-1.8,1.4-2.9,1.3
			c-1.6,0.1-3-1.1-3.1-2.8c0-0.1,0-0.1,0-0.2c0-2.5,2.2-3.7,5.9-3.7V61c0-0.6-0.3-1.7-2-1.7c-0.9,0-1.8,0.3-2.6,0.7l-0.5-1.6
			c1.1-0.6,2.3-0.9,3.6-0.9c3.2,0,4.1,2,4.1,4.2L197.8,65.3z"/>
		<path d="M207.1,61.9c0-0.2,0-0.4-0.1-0.7c-0.2-1-1.1-1.8-2.1-1.8c-1.6,0-2.5,1.4-2.5,3.2c0,1.8,0.9,3.1,2.5,3.1
			c1.1,0,2-0.7,2.2-1.8c0.1-0.2,0.1-0.5,0.1-0.7L207.1,61.9z M209.5,53.3v11.6c0,1,0,2.1,0.1,2.8h-2.2l-0.1-1.6l0,0
			c-0.7,1.1-1.9,1.8-3.2,1.8c-2.4,0-4.2-2-4.2-5c0-3.3,2-5.3,4.4-5.3c1.1-0.1,2.1,0.4,2.7,1.2l0,0v-5.6H209.5z"/>
		<path d="M215.1,55.2v2.5h2.4v1.9h-2.4V64c0,1.2,0.3,1.8,1.3,1.8c0.3,0,0.7,0,1-0.1v1.9c-0.6,0.2-1.2,0.3-1.8,0.3
			c-0.8,0-1.6-0.2-2.1-0.8c-0.6-0.8-0.9-1.8-0.8-2.8v-4.7h-1.4v-1.9h1.4v-1.8L215.1,55.2z"/>
		<path d="M92.7,31.9c-0.4-4.6-1.3-9.1-2.7-13.4c-0.8-2.7-2-5.2-3.5-7.6C83,5.8,78.4,2.7,73,1.9c-3-0.6-6.1-0.5-9.1,0.2l0,0
			c-4.7,1-8.7,4-11,8.3c-2.1,3.8-2.3,8.3-0.7,12.3c1.3,3.1,4,5.5,7.3,6.2l-0.6,1.4c-3.7-0.9-6.7-3.6-8.1-7.1
			c-1.8-4.4-1.5-9.4,0.8-13.6c2.5-4.6,6.9-7.9,12-9l0.2,0.7l-0.1-0.8c3.2-0.7,6.5-0.8,9.7-0.2c5.8,0.9,10.7,4.1,14.5,9.7
			c1.6,2.5,2.8,5.2,3.7,8c1.4,4.4,2.4,9,2.9,13.6L92.7,31.9L92.7,31.9z"/>
		<path class="st0" d="M17.9,55.2L15.4,48c-0.6-1.8-1.1-3.8-1.6-5.5h-0.1c-0.5,1.7-1,3.8-1.5,5.5l-2.5,7.2H17.9z M8.8,59.3L6,67.6H0
			l10.2-29.4h7.5l10.4,29.4h-6.3l-2.9-8.3L8.8,59.3z"/>
		<path class="st0" d="M31.8,38.2h5.8v13.5h0.1c0.8-1.1,1.6-2.2,2.3-3.2l8.4-10.3h7.2l-11,12.5l11.7,16.9h-6.8l-9-13.5l-2.9,3.1
			v10.3h-5.8L31.8,38.2z"/>
		<path class="st0" d="M65.2,63.7c1,0.1,2.1,0.2,3.1,0.1c3.8,0,7.1-1.3,7.1-4.9c0-3.5-3.3-4.8-7.3-4.8h-2.9V63.7z M65.2,50.3h3
			c4.1,0,6.3-1.7,6.3-4.2c0-2.8-2.3-4-6-4c-1.1,0-2.2,0-3.3,0.2L65.2,50.3z M59.4,38.7c2.8-0.5,5.7-0.7,8.6-0.7c4.3,0,7,0.5,9.1,1.9
			c2.1,1.1,3.4,3.2,3.3,5.5c0,2.7-1.8,5.1-5.3,6.3v0.1c3.4,0.8,6.5,3.2,6.5,7.2c0,2.4-1.1,4.6-3,6.1c-2.3,1.8-6,2.7-11.9,2.7
			c-2.4,0-4.8-0.1-7.2-0.4L59.4,38.7z"/>
		<path class="st0" d="M85.1,61.8c2.4,1.2,5,1.9,7.7,1.9c3.7,0,5.8-1.6,5.8-4c0-2.2-1.6-3.5-5.7-4.9c-5.3-1.8-8.7-4.3-8.7-8.5
			c0-4.8,4.4-8.5,11.3-8.5c2.6-0.1,5.2,0.4,7.6,1.5l-1.4,4.3c-2-0.9-4.2-1.4-6.4-1.4c-3.7,0-5.3,1.8-5.3,3.5c0,2.3,1.8,3.3,6.1,4.8
			c5.6,1.9,8.2,4.5,8.2,8.7c0,4.8-3.9,8.8-12.1,8.8c-3,0-6-0.6-8.7-1.9L85.1,61.8z"/>
		<path d="M75.4,30c0.6-2.9,0.7-5.9,0.5-8.9c-0.4-3.6-2.7-7.6-6.7-8.6c-1.4-0.5-3-0.5-4.4,0c-2.3,0.6-4.1,2.5-4.8,4.8
			c-0.4,1.4-0.2,3,0.6,4.2c0.4,0.6,1,1,1.7,1.2l0.6-1.4c-0.4-0.1-0.8-0.3-1-0.7c-0.5-0.9-0.7-2-0.4-3c0.5-1.8,2-3.2,3.8-3.8
			c1.2-0.4,2.4-0.4,3.6,0c3.4,0.8,5.3,4.3,5.7,7.4c0.2,2.8,0.1,5.7-0.5,8.5c-0.1,0.7-0.2,1.4-0.3,2.1l1.5,0.2
			C75.2,31.3,75.3,30.6,75.4,30z"/>
		<polygon points="100.5,71.7 99.1,71.9 99,72 102.8,94.6 92.1,87.1 91.5,88.5 104.9,97.9 		"/>
	</g>
</g>
</svg>

